<svg width="18" height="16" viewBox="0 0 18 16" fill="none" xmlns="http://www.w3.org/2000/svg">
<path d="M0.858612 6.20851L0.85855 6.2081C0.842128 6.09612 0.849414 5.98178 0.879958 5.8729C0.910504 5.76401 0.963658 5.66293 1.03605 5.57678C1.10845 5.49061 1.19841 5.42138 1.29993 5.37423C1.40117 5.3272 1.5113 5.30336 1.62266 5.30452M0.858612 6.20851L1.62185 5.45452M0.858612 6.20851L2.01454 13.9399C2.01455 13.9399 2.01456 13.94 2.01457 13.9401C2.06414 14.2779 2.23011 14.5869 2.48329 14.8096C2.73645 15.0323 3.05969 15.1536 3.39364 15.1499M0.858612 6.20851L3.39364 15.1499M1.62266 5.30452C1.62298 5.30452 1.62329 5.30453 1.62361 5.30453L1.62185 5.45452M1.62266 5.30452H1.62185V5.45452M1.62266 5.30452H5.16118M1.62185 5.45452H5.16118V5.30452M5.16118 5.30452H5.31118V2.90908C5.31118 2.40276 5.50552 1.91718 5.85146 1.55916C6.19741 1.20113 6.6666 1 7.15584 1H10.8452C11.3344 1 11.8036 1.20113 12.1495 1.55916C12.4955 1.91718 12.6898 2.40276 12.6898 2.90908V5.30452H12.8398M5.16118 5.30452V2.90908C5.16118 2.36461 5.37012 1.84144 5.74359 1.45493C6.11724 1.06823 6.62513 0.85 7.15584 0.85H10.8452C11.3759 0.85 11.8838 1.06823 12.2574 1.45493C12.6309 1.84144 12.8398 2.36461 12.8398 2.90908V5.30452M12.8398 5.30452V5.45452L15.9988 13.9399L17.1424 6.20828L17.1427 6.20648C17.1578 6.09495 17.1494 5.98133 17.1181 5.87332C17.0869 5.76568 17.0336 5.6659 16.9614 5.58089C16.8901 5.49481 16.8013 5.4253 16.7009 5.37746C16.6002 5.32947 16.4904 5.30451 16.3791 5.30452H12.8398ZM3.39364 15.1499H14.6197C14.9536 15.1536 15.2769 15.0323 15.53 14.8096C15.7832 14.5869 15.9492 14.2779 15.9987 13.9401L3.39364 15.1499ZM6.69095 2.90908C6.69095 2.77846 6.74114 2.65418 6.82892 2.56334L6.72105 2.45911L6.82892 2.56334C6.91653 2.47267 7.03424 2.42272 7.15584 2.42272H10.8452C10.9668 2.42272 11.0845 2.47267 11.1721 2.56334C11.2599 2.65418 11.3101 2.77846 11.3101 2.90908V5.30452H6.69095V2.90908ZM15.4858 6.87724L14.4912 13.5772H3.5098L2.51518 6.87724H15.4858Z" fill="black" stroke="black" stroke-width="0.3"/>
</svg>
