<svg width="56" height="56" viewBox="0 0 56 56" fill="none" xmlns="http://www.w3.org/2000/svg">
<path d="M48.4113 55.25L48.4041 55.2496C27.9233 54.0714 16.205 44.8313 9.51454 34.5515C2.83294 24.2854 1.17687 13.0014 0.770542 7.72803C0.702735 6.87826 0.803186 6.02346 1.06614 5.21258C1.32913 4.4016 1.7495 3.6505 2.30317 3.00231C2.85684 2.35411 3.53292 1.82158 4.29269 1.43521C5.05246 1.04884 5.88097 0.816244 6.73076 0.750741L6.74035 0.750002H6.74997H18.1895H18.1896V1C19.0212 0.999197 19.8339 1.24821 20.5224 1.7148C21.211 2.18138 21.7436 2.84404 22.0513 3.61693L48.4113 55.25ZM48.4113 55.25H48.4185H48.7714C50.4897 55.25 52.1375 54.5672 53.3524 53.3518C54.5674 52.1364 55.2499 50.488 55.2499 48.7692V37.8037C55.2559 36.9297 55.0017 36.0737 54.5197 35.3446C54.0376 34.6152 53.3493 34.0459 52.5425 33.7093L52.5392 33.7079L44.7161 30.5734C44.7154 30.5731 44.7147 30.5729 44.714 30.5726C43.9177 30.238 43.0406 30.1451 42.1919 30.3055C41.3425 30.4661 40.5591 30.8732 39.9395 31.4762L39.9379 31.4778L35.5252 35.8515C31.7012 35.1413 28.1817 33.2859 25.4337 30.5296C22.6855 27.7732 20.8401 24.2474 20.1403 20.4198L24.4705 16.0474C24.4705 16.0473 24.4706 16.0472 24.4707 16.0471C25.0801 15.4365 25.4967 14.6603 25.6688 13.8148C25.841 12.9693 25.7611 12.0918 25.4389 11.2913L25.4386 11.2905L22.2835 3.52446C22.2834 3.52417 22.2833 3.52389 22.2832 3.5236L48.4113 55.25ZM48.6623 50.5966L48.6611 50.5966C30.5404 49.5625 19.9817 41.8136 13.8258 32.8123C7.66442 23.8029 5.89915 13.516 5.42209 7.38722V7.23077C5.42209 6.74621 5.61451 6.28152 5.95699 5.93891C6.29947 5.5963 6.76395 5.40385 7.24825 5.40385H18.0408L21.0319 12.9243L15.2506 18.7688L15.1652 18.8551L15.1802 18.9756L15.3039 19.9653C15.3057 19.9899 15.3095 20.0195 15.3126 20.0428C15.3181 20.085 15.3264 20.1433 15.3378 20.2165C15.3607 20.3631 15.3964 20.5712 15.4482 20.8326C15.5517 21.3555 15.7197 22.0927 15.9779 22.9783C16.4941 24.7488 17.3723 27.1163 18.8208 29.5505C21.7206 34.4238 26.9091 39.5659 36.0342 40.7096L36.0343 40.7096L37.0309 40.8342L37.1517 40.8493L37.2381 40.7635L43.08 34.9601L50.5976 37.9722V48.8864C50.5828 49.124 50.5218 49.3565 50.4179 49.5707C50.313 49.7871 50.1664 49.9806 49.9865 50.1401C49.8067 50.2996 49.5971 50.4221 49.3699 50.5004C49.1426 50.5788 48.9022 50.6115 48.6623 50.5966Z" fill="#FFB801" stroke="#FFB801" stroke-width="0.5"/>
</svg>
