<svg width="292" height="292" viewBox="0 0 292 292" fill="none" xmlns="http://www.w3.org/2000/svg">
<path d="M245.791 225.752C232.833 204.874 204.308 182.5 146 182.5C87.691 182.5 59.1845 204.856 46.2087 225.752C58.164 240.74 73.3449 252.839 90.6221 261.149C107.899 269.459 126.828 273.766 146 273.75C165.171 273.766 184.1 269.459 201.377 261.149C218.654 252.839 233.835 240.74 245.791 225.752Z" fill="black"/>
<path fill-rule="evenodd" clip-rule="evenodd" d="M146 164.25C160.521 164.25 174.446 158.482 184.714 148.214C194.982 137.946 200.75 124.021 200.75 109.5C200.75 94.9794 194.982 81.0535 184.714 70.7859C174.446 60.5183 160.521 54.75 146 54.75C131.479 54.75 117.554 60.5183 107.286 70.7859C97.0183 81.0535 91.25 94.9794 91.25 109.5C91.25 124.021 97.0183 137.946 107.286 148.214C117.554 158.482 131.479 164.25 146 164.25Z" fill="black"/>
<path fill-rule="evenodd" clip-rule="evenodd" d="M146 18.25C112.119 18.25 79.6249 31.7093 55.6671 55.6671C31.7093 79.6249 18.25 112.119 18.25 146C18.25 179.881 31.7093 212.375 55.6671 236.333C79.6249 260.291 112.118 273.75 146 273.75C179.881 273.75 212.375 260.291 236.333 236.333C260.291 212.375 273.75 179.881 273.75 146C273.75 112.119 260.291 79.6249 236.333 55.6671C212.375 31.7093 179.881 18.25 146 18.25ZM0 146C0 107.278 15.3821 70.1427 42.7624 42.7624C70.1427 15.3821 107.278 0 146 0C184.722 0 221.857 15.3821 249.238 42.7624C276.618 70.1427 292 107.278 292 146C292 184.722 276.618 221.857 249.238 249.238C221.857 276.618 184.722 292 146 292C107.278 292 70.1427 276.618 42.7624 249.238C15.3821 221.857 0 184.722 0 146Z" fill="black"/>
</svg>
