<svg width="32" height="31" viewBox="0 0 32 31" fill="none" xmlns="http://www.w3.org/2000/svg">
<path d="M29.8825 12.1384C29.7486 11.721 29.5025 11.3488 29.1712 11.0633C28.84 10.7778 28.4366 10.5899 28.0057 10.5206L21.2443 9.41613L18.1099 3.29395C17.9103 2.9042 17.6077 2.57727 17.2353 2.34901C16.863 2.12075 16.4353 2 15.9992 2C15.563 2 15.1353 2.12075 14.763 2.34901C14.3906 2.57727 14.088 2.9042 13.8884 3.29395L10.754 9.41613L3.99276 10.5206C3.5623 10.591 3.15946 10.7793 2.82843 11.0647C2.4974 11.3501 2.25098 11.7216 2.11621 12.1385C1.98143 12.5555 1.96351 13.0016 2.06441 13.4281C2.16531 13.8546 2.38113 14.2449 2.6882 14.5562L7.51236 19.4444L6.4682 26.2491C6.40119 26.6825 6.45441 27.1261 6.62199 27.5311C6.78957 27.9361 7.06502 28.2867 7.41805 28.5445C7.77107 28.8024 8.188 28.9573 8.62297 28.9924C9.05794 29.0274 9.49411 28.9412 9.88349 28.7432L15.9992 25.6421L22.115 28.7432C22.5044 28.9408 22.9405 29.0267 23.3753 28.9915C23.8101 28.9562 24.2268 28.8013 24.5797 28.5435C24.9326 28.2858 25.208 27.9353 25.3757 27.5306C25.5434 27.1258 25.5969 26.6824 25.5303 26.2491L24.4861 19.4444L29.3103 14.5562C29.6183 14.2455 29.8348 13.8552 29.9358 13.4285C30.0368 13.0017 30.0183 12.5553 29.8825 12.1384ZM27.9849 13.2349L22.4975 18.795L23.6854 26.5353C23.7001 26.628 23.689 26.723 23.6533 26.8097C23.6176 26.8965 23.5588 26.9716 23.4832 27.0268C23.4077 27.0819 23.3184 27.115 23.2253 27.1223C23.1322 27.1296 23.0389 27.1109 22.9557 27.0681L15.9992 23.5406L9.04256 27.0683C8.9594 27.111 8.8661 27.1297 8.77299 27.1224C8.67989 27.1151 8.59061 27.0821 8.51505 27.0269C8.4395 26.9717 8.38061 26.8966 8.34493 26.8098C8.30924 26.7231 8.29814 26.6281 8.31287 26.5354L9.50083 18.795L4.01347 13.2348C3.94794 13.1683 3.9019 13.0849 3.88038 12.9938C3.85887 12.9027 3.86271 12.8074 3.8915 12.7183C3.92028 12.6293 3.97289 12.5499 4.04357 12.4889C4.11425 12.4279 4.20026 12.3877 4.29219 12.3726L11.9829 11.1163L15.5482 4.15252C15.5908 4.06923 15.6555 3.99935 15.735 3.95056C15.8146 3.90177 15.906 3.87596 15.9992 3.87596C16.0924 3.87596 16.1837 3.90177 16.2633 3.95056C16.3429 3.99935 16.4075 4.06923 16.4501 4.15252L20.0154 11.1163L27.7061 12.3726C27.7981 12.3877 27.8841 12.4279 27.9547 12.4889C28.0254 12.5499 28.078 12.6293 28.1068 12.7183C28.1356 12.8074 28.1395 12.9027 28.1179 12.9938C28.0964 13.0849 28.0504 13.1683 27.9848 13.2348L27.9849 13.2349Z" fill="#FFB801" stroke="#FFB801" stroke-width="3"/>
</svg>
